<svg xmlns="http://www.w3.org/2000/svg" width="23" height="18" viewBox="0 0 23 18">
  <defs>
    <style>
      .cls-1 {
        fill: #fff;
        fill-rule: evenodd;
      }
    </style>
  </defs>
  <path id="icon.svg_" data-name="icon.svg " class="cls-1" d="M217.21,553.754l2.717-7.855a0.74,0.74,0,0,0-.077-0.754,1.246,1.246,0,0,0-.973-0.388l-15.354,0-0.41-1.878a1.069,1.069,0,0,0-1.1-.865H197.7a0.581,0.581,0,0,0-.69.606V543.7c0,0.391.241,0.492,0.705,0.492h3.644l2.788,11.437a2.532,2.532,0,0,0-.684,1.729,2.616,2.616,0,0,0,2.546,2.607,2.82,2.82,0,0,0,2.523-1.948h5.43A2.634,2.634,0,0,0,216.486,560a2.566,2.566,0,0,0,2.544-2.529,2.4,2.4,0,0,0-2.53-2.541,2.5,2.5,0,0,0-1.915.91h-6.673a2.133,2.133,0,0,0-1.814-.979l-0.092-.477h10.153a0.883,0.883,0,0,0,1.051-.626h0Zm-12.188,3.683a0.968,0.968,0,1,1,.969.936A0.954,0.954,0,0,1,205.022,557.437Zm11.484,0.923a0.924,0.924,0,1,1,.956-0.923A0.941,0.941,0,0,1,216.506,558.36Z" transform="translate(-197 -542)"/>
</svg>
