<?xml version="1.0" encoding="utf-8"?><svg width="27" height="37" viewBox="0 0 27 37" xmlns="http://www.w3.org/2000/svg" xmlns:xlink="http://www.w3.org/1999/xlink"><svg width="23" height="18" viewBox="0 0 23 18" id="cart"><path d="M22.927 3.899c.136-.378.033-.605-.077-.754-.281-.384-.86-.388-.973-.388L6.523 2.754 6.113.876C6.003.433 5.676.011 5.017.011H.702c-.447 0-.69.202-.69.606v1.084c0 .391.241.492.705.492h3.644L7.149 13.63c-.443.453-.684 1.114-.684 1.729 0 1.357 1.118 2.607 2.546 2.607 1.348 0 2.359-1.22 2.523-1.948h5.43c.164.728.983 1.978 2.522 1.978 1.403 0 2.544-1.175 2.544-2.529 0-1.347-.847-2.541-2.53-2.541-.7 0-1.53.363-1.915.91h-6.673c-.484-.728-1.145-.953-1.815-.979l-.09-.477h10.152c.765 0 .916-.269 1.051-.626zM8.022 15.437c0-.516.435-.936.969-.936.532 0 .966.42.966.936s-.434.936-.966.936c-.534-.001-.969-.42-.969-.936zm11.484.923c-.528 0-.957-.414-.957-.923 0-.51.429-.924.957-.924s.956.414.956.924c0 .509-.429.923-.956.923z"/></svg><svg width="27" height="19" viewBox="0 0 27 19" id="check" y="18"><path d="M.768 9.051l1.415-1.415 7.778 7.779L24.81.565l1.414 1.415L9.961 18.243z"/></svg></svg>