<?xml version="1.0" encoding="utf-8"?><svg width="1024" height="1442" viewBox="0 0 1024 1442" xmlns="http://www.w3.org/2000/svg" xmlns:xlink="http://www.w3.org/1999/xlink"><svg id="YouTube-icon-dark" viewBox="0 0 1024 721" width="1024" height="721"><style>.ast0{fill:#fff}.ast1{opacity:.12;fill-rule:evenodd;clip-rule:evenodd}.ast2{fill:#282928}</style><path id="aTriangle" class="ast0" d="M407 493l276-143-276-144v287z"/><path id="aThe_Sharpness" class="ast1" d="M407 206l242 161.6 34-17.6-276-144z"/><path class="ast2" d="M1013 156.3s-10-70.4-40.6-101.4C933.6 14.2 890 14 870.1 11.6 727.1 1.3 512.7 1.3 512.7 1.3h-.4s-214.4 0-357.4 10.3C135 14 91.4 14.2 52.6 54.9 22 85.9 12 156.3 12 156.3S1.8 238.9 1.8 321.6v77.5C1.8 481.8 12 564.4 12 564.4s10 70.4 40.6 101.4c38.9 40.7 89.9 39.4 112.6 43.7 81.7 7.8 347.3 10.3 347.3 10.3s214.6-.3 357.6-10.7c20-2.4 63.5-2.6 102.3-43.3 30.6-31 40.6-101.4 40.6-101.4s10.2-82.7 10.2-165.3v-77.5c0-82.7-10.2-165.3-10.2-165.3zM407 493V206l276 144-276 143z" id="aLozenge"/></svg><svg id="YouTube-icon-red" viewBox="0 0 1024 721" width="1024" height="721" y="721"><style>.bst0{fill:#fff}.bst1{opacity:.12;fill-rule:evenodd;clip-rule:evenodd;fill:#420000}.bst2{fill:url(#bSVGID_1_)}</style><path id="bTriangle" class="bst0" d="M407 493l276-143-276-144v287z"/><path id="bThe_Sharpness" class="bst1" d="M407 206l242 161.6 34-17.6-276-144z"/><g id="bLozenge"><linearGradient id="bSVGID_1_" gradientUnits="userSpaceOnUse" x1="512.499" y1="1.296" x2="512.499" y2="719.719"><stop offset="0" stop-color="#e52d27"/><stop offset="1" stop-color="#bf171d"/></linearGradient><path class="bst2" d="M1013 156.3s-10-70.4-40.6-101.4C933.6 14.2 890 14 870.1 11.6 727.1 1.3 512.7 1.3 512.7 1.3h-.4s-214.4 0-357.4 10.3C135 14 91.4 14.2 52.6 54.9 22 85.9 12 156.3 12 156.3S1.8 238.9 1.8 321.6v77.5C1.8 481.8 12 564.4 12 564.4s10 70.4 40.6 101.4c38.9 40.7 89.9 39.4 112.6 43.7 81.7 7.8 347.3 10.3 347.3 10.3s214.6-.3 357.6-10.7c20-2.4 63.5-2.6 102.3-43.3 30.6-31 40.6-101.4 40.6-101.4s10.2-82.7 10.2-165.3v-77.5c0-82.7-10.2-165.3-10.2-165.3zM407 493V206l276 144-276 143z"/></g></svg></svg>