<svg xmlns="http://www.w3.org/2000/svg" width="20.57" height="33.875" viewBox="0 0 20.57 33.875">
  <defs>
    <style>
      .cls-1 {
        fill: #02f;
        fill-rule: evenodd;
      }
    </style>
  </defs>
  <path class="cls-1" d="M2079.12,975.977a0.751,0.751,0,0,0,.62-0.325c0.39-.582,9.66-14.316,9.66-19.588a10.284,10.284,0,0,0-20.56,0c0,5.272,9.26,19.006,9.66,19.588A0.738,0.738,0,0,0,2079.12,975.977Zm3.69-20.923a3.692,3.692,0,1,0-3.69,3.581A3.644,3.644,0,0,0,2082.81,955.054Zm0.87,17.793a0.73,0.73,0,0,0-.87.569,0.718,0.718,0,0,0,.58.845c2.91,0.554,3.99,1.486,3.99,1.944,0,0.924-3.29,2.32-8.26,2.32s-8.27-1.4-8.27-2.32c0-.461,1.1-1.4,4.03-1.95a0.731,0.731,0,0,0,.59-0.845,0.751,0.751,0,0,0-.87-0.572c-3.33.624-5.23,1.852-5.23,3.367,0,2.471,4.9,3.764,9.75,3.764s9.75-1.293,9.75-3.764C2088.87,974.7,2086.98,973.474,2083.68,972.847Z" transform="translate(-2068.84 -946.094)"/>
</svg>
